<svg width="26" height="26" viewBox="0 0 26 26" fill="none" xmlns="http://www.w3.org/2000/svg">
<g clip-path="url(#clip0_3_2520)">
<path d="M13 0C9.46942 0 9.02633 0.0151667 7.63967 0.078C5.63008 0.170083 3.63458 0.729083 2.18183 2.18183C0.723667 3.64 0.170083 5.63117 0.078 7.63967C0.0151667 9.02633 0 9.46942 0 13C0 16.5306 0.0151667 16.9737 0.078 18.3603C0.170083 20.3678 0.73125 22.3687 2.18183 23.8182C3.63892 25.2752 5.63333 25.8299 7.63967 25.922C9.02633 25.9848 9.46942 26 13 26C16.5306 26 16.9737 25.9848 18.3603 25.922C20.3688 25.8299 22.3665 25.2698 23.8182 23.8182C25.2774 22.3589 25.8299 20.3688 25.922 18.3603C25.9848 16.9737 26 16.5306 26 13C26 9.46942 25.9848 9.02633 25.922 7.63967C25.8299 5.63008 25.2698 3.6335 23.8182 2.18183C22.3633 0.726916 20.3634 0.169 18.3603 0.078C16.9737 0.0151667 16.5306 0 13 0Z" fill="white"/>
<path d="M19.9398 7.62018C20.8014 7.62018 21.4998 6.92175 21.4998 6.06018C21.4998 5.19862 20.8014 4.50018 19.9398 4.50018C19.0783 4.50018 18.3798 5.19862 18.3798 6.06018C18.3798 6.92175 19.0783 7.62018 19.9398 7.62018Z" fill="#7646FF"/>
<path d="M13.0002 6.32446C9.31362 6.32446 6.32471 9.31338 6.32471 13C6.32471 16.6865 9.31362 19.6755 13.0002 19.6755C16.6868 19.6755 19.6757 16.6865 19.6757 13C19.6757 9.31338 16.6868 6.32446 13.0002 6.32446ZM13.0002 17.3333C10.6071 17.3333 8.66687 15.393 8.66687 13C8.66687 10.6069 10.6071 8.66663 13.0002 8.66663C15.3933 8.66663 17.3335 10.6069 17.3335 13C17.3335 15.393 15.3933 17.3333 13.0002 17.3333Z" fill="#7646FF"/>
</g>
<defs>
<clipPath id="clip0_3_2520">
<rect width="26" height="26" fill="white"/>
</clipPath>
</defs>
</svg>
