<svg width="36" height="36" viewBox="0 0 36 36" fill="none" xmlns="http://www.w3.org/2000/svg">
<path d="M25.5 30.75H10.5C6 30.75 3 28.5 3 23.25V12.75C3 7.5 6 5.25 10.5 5.25H25.5C30 5.25 33 7.5 33 12.75V23.25C33 28.5 30 30.75 25.5 30.75Z" fill="white"/>
<path d="M18 19.305C16.74 19.305 15.465 18.915 14.49 18.12L9.79503 14.37C9.31503 13.98 9.22504 13.275 9.61504 12.795C10.005 12.315 10.71 12.225 11.19 12.615L15.885 16.365C17.025 17.28 18.96 17.28 20.1 16.365L24.795 12.615C25.275 12.225 25.995 12.3 26.37 12.795C26.76 13.275 26.685 13.995 26.19 14.37L21.495 18.12C20.535 18.915 19.26 19.305 18 19.305Z" fill="#7646FF"/>
</svg>
